<?xml version="1.0" encoding="UTF-8"?>
<svg id="Livello_2" data-name="Livello 2" xmlns="http://www.w3.org/2000/svg" viewBox="0 0 300 90">
  <defs>
    <style>
      .cls-1 {
        fill: #111;
      }

      .cls-2 {
        fill: #fff;
      }

      .cls-3 {
        fill: #e20613;
      }
    </style>
  </defs>
  <rect class="cls-1" x=".46" width="300" height="90"/>
  <g>
    <path class="cls-2" d="M121.26,41.11l14.59-32.23h10.04l1.17,32.23h-8.15l.09-6.21h-6.8l-2.52,6.21h-8.42ZM134.86,28.28h4.32l.18-8.6c0-.72,0-1.43.02-2.14.01-.71.07-1.43.16-2.18h-.13c-.15.72-.34,1.42-.56,2.09-.22.67-.46,1.37-.7,2.09l-3.29,8.73Z"/>
    <path class="cls-2" d="M160.3,41.56c-2.07,0-3.8-.46-5.18-1.37-1.38-.92-2.42-2.19-3.13-3.83-.71-1.63-1.06-3.56-1.06-5.79,0-2.07.22-4.15.65-6.24.43-2.09,1.06-4.08,1.89-5.99.83-1.91,1.86-3.59,3.11-5.07,1.25-1.47,2.69-2.63,4.32-3.49,1.63-.86,3.46-1.28,5.47-1.28,1.56,0,3.08.19,4.55.56,1.47.38,2.82,1.01,4.05,1.91l-3.47,6.17c-.9-.66-1.74-1.14-2.52-1.44-.78-.3-1.58-.45-2.39-.45-1.02,0-1.93.35-2.72,1.06-.79.71-1.49,1.64-2.09,2.79-.6,1.16-1.1,2.41-1.49,3.76-.39,1.35-.68,2.67-.88,3.96-.2,1.29-.29,2.42-.29,3.38,0,1.62.27,2.79.81,3.51.54.72,1.31,1.08,2.3,1.08,1.08,0,2.15-.17,3.2-.5,1.05-.33,2.13-.77,3.24-1.31v6.8c-1.26.6-2.63,1.04-4.1,1.33-1.47.29-2.9.43-4.28.43Z"/>
    <path class="cls-2" d="M182.58,41.56c-2.07,0-3.8-.46-5.18-1.37-1.38-.92-2.42-2.19-3.13-3.83-.71-1.63-1.06-3.56-1.06-5.79,0-2.07.22-4.15.65-6.24.43-2.09,1.07-4.08,1.89-5.99s1.86-3.59,3.11-5.07c1.25-1.47,2.69-2.63,4.32-3.49s3.46-1.28,5.47-1.28c1.56,0,3.08.19,4.55.56,1.47.38,2.82,1.01,4.05,1.91l-3.47,6.17c-.9-.66-1.74-1.14-2.52-1.44s-1.58-.45-2.39-.45c-1.02,0-1.93.35-2.72,1.06-.8.71-1.49,1.64-2.09,2.79s-1.1,2.41-1.49,3.76c-.39,1.35-.68,2.67-.88,3.96-.2,1.29-.29,2.42-.29,3.38,0,1.62.27,2.79.81,3.51.54.72,1.31,1.08,2.3,1.08,1.08,0,2.15-.17,3.2-.5s2.13-.77,3.24-1.31v6.8c-1.26.6-2.63,1.04-4.1,1.33s-2.9.43-4.28.43Z"/>
    <path class="cls-3" d="M194.87,41.11l6.8-32.14h7.97c2.28,0,4.13.35,5.54,1.06,1.41.71,2.44,1.68,3.08,2.93.64,1.25.97,2.68.97,4.3s-.25,3.26-.77,4.84c-.51,1.58-1.28,2.99-2.32,4.25-1.04,1.26-2.33,2.26-3.89,2.99s-3.39,1.1-5.49,1.1h-1.8l-2.25,10.67h-7.83ZM207.16,23.78c.84,0,1.56-.25,2.16-.74.6-.5,1.06-1.18,1.4-2.05.33-.87.5-1.86.5-2.97,0-.84-.2-1.45-.58-1.82-.39-.38-.99-.56-1.8-.56h-.68l-1.8,8.15h.81Z"/>
    <path class="cls-3" d="M216.75,41.11l.9-4.19,4.14-1.8,4.28-20.12-3.38-1.85.86-4.19h15.49l-.9,4.19-4.23,1.85-4.28,20.12,3.47,1.8-.9,4.19h-15.44Z"/>
    <path class="cls-3" d="M239.8,41.11l5.31-25.39h-5.72l1.44-6.75h19.31l-1.44,6.75h-5.72l-5.36,25.39h-7.83Z"/>
    <path class="cls-3" d="M127.29,79.14l.5-32.14h7.52l-.54,14.18c-.06,1.2-.13,2.33-.22,3.4-.09,1.07-.18,1.99-.27,2.77h.09c.33-.93.68-1.89,1.06-2.88.38-.99.77-1.98,1.19-2.97l6.03-14.5h6.53l-.36,14.63c-.03.66-.05,1.31-.07,1.94-.02.63-.04,1.26-.07,1.89-.03.63-.08,1.28-.14,1.94h.09c.18-.57.39-1.21.63-1.91.24-.71.5-1.43.77-2.18.27-.75.55-1.53.86-2.34l5.31-13.96h7.83l-12.79,32.14h-9l.13-11.66c0-.51.01-1.06.04-1.64s.07-1.19.11-1.82.1-1.25.16-1.85h-.09c-.3.87-.61,1.74-.92,2.61s-.65,1.74-1.01,2.61l-4.64,11.75h-8.73Z"/>
    <path class="cls-3" d="M156.87,79.14l14.59-32.23h10.04l1.17,32.23h-8.15l.09-6.21h-6.8l-2.52,6.21h-8.42ZM170.47,66.31h4.32l.18-8.6c0-.72,0-1.43.02-2.14.01-.71.07-1.43.16-2.18h-.13c-.15.72-.34,1.42-.56,2.09-.22.67-.46,1.37-.7,2.09l-3.29,8.73Z"/>
    <path class="cls-3" d="M185.42,79.14l6.8-32.14h7.83l-5.4,25.44h8.46l-1.4,6.71h-16.3Z"/>
    <path class="cls-3" d="M205.14,79.14l6.8-32.14h7.83l-5.4,25.44h8.46l-1.4,6.71h-16.3Z"/>
  </g>
  <g>
    <polygon class="cls-2" points="51.93 57.71 51.93 19.26 0 71.19 0 90.43 34.09 56.34 34.09 75.55 51.93 57.71"/>
    <polygon class="cls-2" points="109.54 38.5 109.54 19.26 75.46 53.35 75.46 41.14 57.61 58.98 57.61 71.19 76.85 71.19 109.54 38.5"/>
    <polygon class="cls-2" points="90.4 0 57.61 32.85 57.61 52.08 90.4 19.24 90.4 0"/>
  </g>
</svg>