<?xml version="1.0" encoding="UTF-8"?>
<svg id="Livello_2" xmlns="http://www.w3.org/2000/svg" version="1.1" viewBox="0 0 300 90">
  <!-- Generator: Adobe Illustrator 29.8.3, SVG Export Plug-In . SVG Version: 2.1.1 Build 3)  -->
  <defs>
    <style>
      .st0 {
        fill: #333;
      }

      .st1 {
        fill: #e20613;
      }
    </style>
  </defs>
  <g>
    <path class="st0" d="M121.3,41.1l14.6-32.2h10l1.2,32.2h-8.1v-6.2h-6.7l-2.5,6.2h-8.5ZM134.9,28.3h4.3l.2-8.6v-2.1c0-.7,0-1.4.2-2.2h-.1c-.1.7-.3,1.4-.6,2.1s-.5,1.4-.7,2.1l-3.3,8.7h0Z"/>
    <path class="st0" d="M160.3,41.6c-2.1,0-3.8-.5-5.2-1.4s-2.4-2.2-3.1-3.8c-.7-1.6-1.1-3.6-1.1-5.8s.2-4.1.6-6.2,1.1-4.1,1.9-6,1.9-3.6,3.1-5.1c1.2-1.5,2.7-2.6,4.3-3.5s3.5-1.3,5.5-1.3,3.1.2,4.6.6c1.5.4,2.8,1,4.1,1.9l-3.5,6.2c-.9-.7-1.7-1.1-2.5-1.4-.8-.3-1.6-.4-2.4-.4s-1.9.4-2.7,1.1-1.5,1.6-2.1,2.8c-.6,1.2-1.1,2.4-1.5,3.8s-.7,2.7-.9,4-.3,2.4-.3,3.4c0,1.6.3,2.8.8,3.5s1.3,1.1,2.3,1.1,2.1-.2,3.2-.5,2.1-.8,3.2-1.3v6.8c-1.3.6-2.6,1-4.1,1.3s-2.9.4-4.3.4h0v-.2Z"/>
    <path class="st0" d="M182.6,41.6c-2.1,0-3.8-.5-5.2-1.4s-2.4-2.2-3.1-3.8c-.7-1.6-1.1-3.6-1.1-5.8s.2-4.1.6-6.2,1.1-4.1,1.9-6,1.9-3.6,3.1-5.1c1.2-1.5,2.7-2.6,4.3-3.5s3.5-1.3,5.5-1.3,3.1.2,4.6.6c1.5.4,2.8,1,4.1,1.9l-3.5,6.2c-.9-.7-1.7-1.1-2.5-1.4s-1.6-.4-2.4-.4-1.9.4-2.7,1.1-1.5,1.6-2.1,2.8-1.1,2.4-1.5,3.8-.7,2.7-.9,4-.3,2.4-.3,3.4c0,1.6.3,2.8.8,3.5s1.3,1.1,2.3,1.1,2.1-.2,3.2-.5,2.1-.8,3.2-1.3v6.8c-1.3.6-2.6,1-4.1,1.3s-2.9.4-4.3.4h0v-.2Z"/>
    <path class="st1" d="M194.9,41.1l6.8-32.1h8c2.3,0,4.1.4,5.5,1.1,1.4.7,2.4,1.7,3.1,2.9s1,2.7,1,4.3-.2,3.3-.8,4.8c-.5,1.6-1.3,3-2.3,4.2-1,1.3-2.3,2.3-3.9,3s-3.4,1.1-5.5,1.1h-1.8l-2.2,10.7h-7.9ZM207.2,23.8c.8,0,1.6-.2,2.2-.7.6-.5,1.1-1.2,1.4-2,.3-.9.5-1.9.5-3s-.2-1.5-.6-1.8c-.4-.4-1-.6-1.8-.6h-.7l-1.8,8.1h.8Z"/>
    <path class="st1" d="M216.8,41.1l.9-4.2,4.1-1.8,4.3-20.1-3.4-1.9.9-4.2h15.5l-.9,4.2-4.2,1.9-4.3,20.1,3.5,1.8-.9,4.2h-15.5Z"/>
    <path class="st1" d="M239.8,41.1l5.3-25.4h-5.7l1.4-6.8h19.3l-1.4,6.8h-5.7l-5.4,25.4h-7.8Z"/>
    <path class="st1" d="M127.3,79.1l.5-32.1h7.5l-.5,14.2c0,1.2-.1,2.3-.2,3.4s-.2,2-.3,2.8h0c.3-.9.7-1.9,1.1-2.9.4-1,.8-2,1.2-3l6-14.5h6.5l-.4,14.6v3.8c0,.6,0,1.3-.1,1.9h0c.2-.6.4-1.2.6-1.9.2-.7.5-1.4.8-2.2s.6-1.5.9-2.3l5.3-14h7.8l-12.8,32.1h-9v-11.7c.1-.5.1-1.1.2-1.6s0-1.2.1-1.8.1-1.2.2-1.8h0c-.3.9-.6,1.7-.9,2.6-.3.9-.6,1.7-1,2.6l-4.6,11.8h-8.9Z"/>
    <path class="st1" d="M156.9,79.1l14.6-32.2h10l1.2,32.2h-8.1v-6.2h-6.7l-2.5,6.2h-8.5ZM170.5,66.3h4.3l.2-8.6v-2.1c0-.7,0-1.4.2-2.2h-.1c-.1.7-.3,1.4-.6,2.1-.2.7-.5,1.4-.7,2.1l-3.3,8.7h0Z"/>
    <path class="st1" d="M185.4,79.1l6.8-32.1h7.8l-5.4,25.4h8.5l-1.4,6.7h-16.3Z"/>
    <path class="st1" d="M205.1,79.1l6.8-32.1h7.8l-5.4,25.4h8.5l-1.4,6.7h-16.3Z"/>
  </g>
  <g>
    <polygon class="st0" points="51.9 57.7 51.9 19.3 0 71.2 0 90.4 34.1 56.3 34.1 75.6 51.9 57.7"/>
    <polygon class="st0" points="109.5 38.5 109.5 19.3 75.5 53.3 75.5 41.1 57.6 59 57.6 71.2 76.8 71.2 109.5 38.5"/>
    <polygon class="st0" points="90.4 0 57.6 32.8 57.6 52.1 90.4 19.2 90.4 0"/>
  </g>
</svg>