<?xml version="1.0" encoding="UTF-8"?>
<svg id="Livello_2" xmlns="http://www.w3.org/2000/svg" version="1.1" viewBox="0 0 330 120">
  <!-- Generator: Adobe Illustrator 29.8.3, SVG Export Plug-In . SVG Version: 2.1.1 Build 3)  -->
  <defs>
    <style>
      .st0 {
        fill: #111;
      }

      .st1 {
        fill: #fff;
      }

      .st2 {
        fill: #e20613;
      }
    </style>
  </defs>
  <rect class="st0" y="0" width="330" height="120"/>
  <g>
    <polygon class="st1" points="70.9 72.9 70.9 33.3 17.4 86.8 17.4 106.6 52.6 71.5 52.6 91.3 70.9 72.9"/>
    <polygon class="st1" points="130.3 53.1 130.3 33.3 95.2 68.4 95.2 55.8 76.8 74.2 76.8 86.8 96.6 86.8 130.3 53.1"/>
    <polygon class="st1" points="110.6 13.4 76.8 47.3 76.8 67.1 110.6 33.2 110.6 13.4"/>
    <path class="st1" d="M134,58.1l16.1-27.9h7.5l-2.4,27.9h-6.1l.7-6.2h-6.1l-3.4,6.2h-6.4ZM146.4,46.9h4.2l1-7.8c.1-.6.2-1.3.3-1.9,0-.6.2-1.3.3-1.9h0c-.2.6-.5,1.2-.8,1.8s-.6,1.2-.9,1.9l-4,8Z"/>
    <path class="st1" d="M166.6,58.5c-1.7,0-3.2-.4-4.2-1.2s-1.8-1.9-2.3-3.3-.5-3.1-.3-5c.2-1.7.6-3.5,1.2-5.3.6-1.8,1.3-3.5,2.3-5.2.9-1.6,2-3.1,3.2-4.4s2.6-2.3,4.1-3.1c1.5-.8,3.1-1.1,4.9-1.1s2.5.2,3.7.5c1.1.3,2.2.8,3.1,1.5l-3.3,4.8c-.7-.5-1.3-.9-1.9-1.2-.6-.2-1.3-.4-2-.4s-1.9.3-2.7,1-1.6,1.5-2.3,2.5-1.3,2.2-1.8,3.4c-.5,1.2-1,2.4-1.3,3.6-.3,1.2-.5,2.2-.7,3.1-.2,1.6,0,2.7.4,3.5s1.2,1.1,2.1,1.1,1.8-.1,2.7-.4c.9-.3,1.8-.6,2.8-1l-.6,5.3c-1.1.5-2.2.8-3.4,1.1s-2.4.4-3.5.4h0Z"/>
    <path class="st1" d="M185.3,58.5c-1.7,0-3.2-.4-4.2-1.2s-1.8-1.9-2.3-3.3-.5-3.1-.3-5c.2-1.7.6-3.5,1.2-5.3.6-1.8,1.3-3.5,2.3-5.2.9-1.6,2-3.1,3.2-4.4s2.6-2.3,4.1-3.1c1.5-.8,3.1-1.1,4.9-1.1s2.5.2,3.7.5c1.1.3,2.2.8,3.1,1.5l-3.3,4.8c-.7-.5-1.3-.9-1.9-1.2-.6-.2-1.3-.4-2-.4s-1.9.3-2.7,1-1.6,1.5-2.3,2.5-1.3,2.2-1.8,3.4c-.5,1.2-1,2.4-1.3,3.6-.3,1.2-.5,2.2-.7,3.1-.2,1.6,0,2.7.4,3.5s1.2,1.1,2.1,1.1,1.8-.1,2.7-.4c.9-.3,1.8-.6,2.8-1l-.6,5.3c-1.1.5-2.2.8-3.4,1.1s-2.4.4-3.5.4h0Z"/>
    <path class="st1" d="M201.5,58.5c-1.3,0-2.6-.1-3.6-.4-1-.3-1.9-.7-2.7-1.4l1.5-5.8c.8.6,1.7,1.1,2.6,1.5.9.4,1.9.6,2.8.6s.9,0,1.3-.2c.4-.1.8-.3,1.2-.5.4-.2.6-.5.9-.9s.4-.8.4-1.4,0-1,0-1.5-.3-.8-.6-1.2-.7-.9-1.3-1.4c-.6-.6-1.2-1.3-1.7-2-.5-.7-.9-1.5-1.1-2.4-.2-.9-.3-1.9-.1-3.1.2-1.2.5-2.4,1-3.5s1.2-2,2.1-2.8c.9-.8,1.9-1.4,3.1-1.9s2.6-.7,4.1-.7,2.3.2,3.4.5c1.1.3,2.1.8,3,1.5l-3.1,5.1c-.8-.6-1.5-1-2.2-1.3-.7-.3-1.3-.4-2-.4s-.7,0-1.1.2-.7.3-1,.5-.6.5-.8.9-.3.8-.4,1.2c0,.5,0,.9.1,1.3s.4.8.7,1.2.8.9,1.4,1.5c.8.6,1.3,1.3,1.8,2.1.4.7.7,1.5.8,2.4s.1,1.8,0,2.8c-.2,1.3-.5,2.5-1.1,3.6-.6,1.1-1.3,2.1-2.3,2.9-.9.8-2,1.5-3.3,1.9-1.2.5-2.6.7-4.1.7h0Z"/>
    <path class="st1" d="M213.4,58.1l9.3-27.8h13.3l-1.7,5.2h-7.3l-1.9,5.7h6.7l-1.8,5.2h-6.7l-2.3,6.6h7.3l-1.7,5.2h-13.3Z"/>
    <path class="st1" d="M230.9,58.1l9.3-27.8h6.2c2.8,0,4.8.6,6,1.7,1.2,1.2,1.7,2.8,1.5,5-.2,1.6-.6,3-1.2,4.3-.6,1.2-1.4,2.3-2.3,3.1-.9.8-1.9,1.5-3,1.9l2,11.8h-6.5l-1.2-10.6h-1.2l-3.5,10.6h-5.9ZM243.1,42.8c.6,0,1.2-.1,1.8-.4.5-.3,1-.6,1.4-1.1.4-.5.7-1,1-1.6.2-.6.4-1.2.5-1.9.1-.8,0-1.5-.4-1.9s-1-.7-1.9-.7h-.9l-2.5,7.6h1.1,0Z"/>
    <path class="st1" d="M255.8,58.1l2.4-27.8h6l-1.9,15.2c0,.5-.1,1.1-.2,1.7,0,.6-.2,1.2-.3,1.8s-.3,1.2-.4,1.9h.1c.3-.8.7-1.7,1.1-2.6.4-.9.8-1.7,1.3-2.6l8.4-15.5h6.3l-16.1,27.8s-6.7,0-6.7,0Z"/>
    <path class="st1" d="M271.9,58.1l9.3-27.8h13.3l-1.7,5.2h-7.3l-1.9,5.7h6.7l-1.8,5.2h-6.7l-2.3,6.6h7.3l-1.7,5.2h-13.3Z"/>
    <path class="st1" d="M289.5,58.1l9.3-27.8h6.2c2.8,0,4.8.6,6,1.7s1.7,2.8,1.5,5c-.2,1.6-.6,3-1.2,4.3-.6,1.2-1.4,2.3-2.3,3.1-.9.8-1.9,1.5-3,1.9l2,11.8h-6.5l-1.2-10.6h-1.2l-3.5,10.6h-5.9ZM301.6,42.8c.6,0,1.2-.1,1.8-.4.5-.3,1-.6,1.4-1.1.4-.5.7-1,1-1.6.2-.6.4-1.2.5-1.9.1-.8,0-1.5-.4-1.9s-1-.7-1.9-.7h-.9l-2.5,7.6h1.1,0Z"/>
    <path class="st2" d="M132.5,90.8l9.3-27.8h7.8l-1.7,18.6h.1l10.6-18.6h8.2l-9.3,27.8h-5.7l4.5-13.5c.2-.7.5-1.3.7-1.9.2-.6.4-1.1.6-1.6.2-.5.4-1,.5-1.4h-.1l-10.7,18.4h-5.2l1.7-18.3h-.1c-.2.6-.4,1.3-.5,1.9-.2.7-.4,1.3-.6,1.9s-.4,1.2-.6,1.8l-4.2,12.6h-5.5Z"/>
    <path class="st2" d="M160,90.8l16.1-27.9h7.5l-2.4,27.9h-6.1l.7-6.2h-6.1l-3.4,6.2h-6.4ZM172.5,79.5h4.2l1-7.8c.1-.6.2-1.3.3-1.9,0-.6.2-1.3.3-1.9h0c-.2.6-.5,1.2-.8,1.8-.3.6-.6,1.2-.9,1.9l-4,8h0Z"/>
    <path class="st2" d="M183.8,90.8l9.3-27.8h6.7l1.8,18.1h.1c.2-.7.4-1.4.6-2.2.2-.8.4-1.5.7-2.2.2-.7.4-1.3.6-1.9l4-11.9h5.5l-9.3,27.8h-6.7l-1.7-18.7h-.1c-.1.5-.3,1.1-.4,1.7-.2.6-.4,1.2-.5,1.9-.2.6-.3,1.2-.5,1.8s-.3,1.1-.5,1.5l-4,11.9h-5.5Z"/>
    <path class="st2" d="M206.2,90.8l16.1-27.9h7.5l-2.4,27.9h-6.1l.7-6.2h-6.1l-3.4,6.2h-6.4ZM218.6,79.5h4.2l1-7.8c.1-.6.2-1.3.3-1.9,0-.6.2-1.3.3-1.9h0c-.2.6-.5,1.2-.8,1.8-.3.6-.6,1.2-.9,1.9l-4,8h0Z"/>
    <path class="st2" d="M239.8,91.2c-2.9,0-5.1-.8-6.4-2.5-1.3-1.7-1.8-4-1.4-7.1.2-1.8.6-3.6,1.3-5.5s1.4-3.6,2.4-5.2c1-1.6,2.1-3.1,3.5-4.3s2.8-2.2,4.5-2.9,3.5-1.1,5.4-1.1,2.7.2,3.9.5c1.2.3,2.2.8,3,1.3l-3.2,5c-.7-.5-1.4-.9-2.2-1.2s-1.7-.4-2.6-.4-2.5.4-3.5,1.2c-1.1.8-2.1,1.9-2.9,3.3s-1.5,2.8-2.1,4.3c-.5,1.6-.9,3.1-1.1,4.5-.1,1.1-.1,2,0,2.7.2.7.5,1.2.9,1.6.5.4,1,.5,1.8.5s.8,0,1.2,0,.7-.1,1.1-.2l2-5.8h-3.4l1.7-5h9.3l-4.9,14.7c-1.4.5-2.9.9-4.3,1.2s-2.7.4-4,.4h0Z"/>
    <path class="st2" d="M252.2,90.8l9.3-27.8h13.3l-1.7,5.2h-7.3l-1.9,5.7h6.7l-1.8,5.2h-6.7l-2.3,6.6h7.3l-1.7,5.2h-13.3Z"/>
    <path class="st2" d="M269.8,90.8l9.3-27.8h6.2c2.8,0,4.8.6,6,1.7s1.7,2.8,1.5,5c-.2,1.6-.6,3-1.2,4.3-.6,1.2-1.4,2.3-2.3,3.1s-1.9,1.5-3,1.9l2,11.8h-6.5l-1.2-10.6h-1.2l-3.5,10.6h-5.9ZM281.9,75.4c.6,0,1.2-.1,1.8-.4.5-.3,1-.6,1.4-1.1.4-.5.7-1,1-1.6.2-.6.4-1.2.5-1.9.1-.8,0-1.5-.4-1.9-.4-.4-1-.7-1.9-.7h-.9l-2.5,7.6h1.1,0Z"/>
  </g>
</svg>